<?xml version="1.0" encoding="iso-8859-1"?>
<!-- Generator: Adobe Illustrator 16.0.0, SVG Export Plug-In . SVG Version: 6.00 Build 0)  -->
<!DOCTYPE svg PUBLIC "-//W3C//DTD SVG 1.1//EN" "http://www.w3.org/Graphics/SVG/1.1/DTD/svg11.dtd">
<svg version="1.1" id="Capa_1" xmlns="http://www.w3.org/2000/svg" xmlns:xlink="http://www.w3.org/1999/xlink" x="0px" y="0px"
	 width="39.716px" height="39.717px" viewBox="0 0 39.716 39.717" style="enable-background:new 0 0 39.716 39.717;"
	 xml:space="preserve">
<g>
	<g>
		<g>
			<path d="M3.477,0v32.062h-1.21V0H3.477z M3.866,37.718h0.732v1l0.349,0.236h1.471l0.256-0.236v-1.916H4.426v-0.596h2.247v-1.558
				l-0.256-0.236H4.946c-0.031,0-0.103,0-0.219,0c-0.084,0-0.13,0.025-0.13,0.076c-0.028,0.059-0.042,0.229-0.042,0.521
				c0,0.267,0,0.438,0,0.521H3.866v-1.519l0.43-0.358h2.811l0.391,0.358v2.113c-0.088,0.082-0.129,0.157-0.129,0.239v0.078v0.043
				c0,0.104,0.041,0.195,0.129,0.275v2.471L7.107,39.59H4.296l-0.43-0.359V37.718z M5.203,0v32.062h-1.21V0H5.203z M6.847,0v32.062
				H6.543V0H6.847z M7.754,0v32.062H7.496V0H7.754z M8.578,0v32.062H8.316V0H8.578z"/>
			<path d="M9.746,0v32.062H9.484V0H9.746z M11.514,0v32.062h-1.21V0H11.514z M13.892,35.884V34.65l-0.257-0.236h-1.688
				c-0.028,0-0.069,0-0.131,0c-0.058,0-0.084,0.025-0.084,0.076v1.039h-0.776v-1.519l0.387-0.358h2.981l0.392,0.358v2.476
				l-0.392,0.438h-2.288l-0.262,0.316v1.678h2.939v0.676h-3.76v-2.828c0-0.029,0.014-0.068,0.043-0.121
				c0.027-0.055,0.055-0.104,0.088-0.158c0.057-0.055,0.141-0.146,0.256-0.276h2.293L13.892,35.884z M13.243,0v32.062h-0.26V0
				H13.243z M14.065,0v32.062h-0.303V0H14.065z M15.795,0v32.062h-1.211V0H15.795z"/>
			<path d="M16.703,0h0.26v32.062h-0.26V0z M17.522,0h0.262v32.062h-0.262V0z M20.938,36.923h-3.026v-3.149h0.735v2.354h2.292
				v-2.354h0.734v5.94h-0.735V36.923z M19.252,0h1.212v32.062h-1.212V0z M20.979,0h0.305v32.062h-0.305V0z M21.802,0h1.209v32.062
				h-1.209V0z"/>
			<path d="M25.13,0v32.062h-1.211V0H25.13z M25.259,37.837h0.688c-0.024,0.082-0.021,0.233,0.022,0.461
				c0.043,0.226,0.078,0.362,0.105,0.42c0,0.052,0.035,0.104,0.109,0.158c0.07,0.053,0.123,0.078,0.15,0.078h1.729l0.258-0.236
				V37.24l-0.258-0.317h-2.807v-3.149h3.761v0.678H26.08v1.758h2.42l0.52,0.516v2.512l-0.52,0.48h-2.726l-0.517-0.482v-1.396
				L25.259,37.837L25.259,37.837z M25.953,0v32.062h-0.306V0H25.953z M28.501,0v32.062h-1.211V0H28.501z M29.409,0v32.062h-0.258V0
				H29.409z M30.231,0v32.062H29.97V0H30.231z"/>
			<path d="M31.399,0v32.062h-0.261V0H31.399z M33.169,0v32.062h-1.211V0H33.169z M32.218,34.25l0.521-0.479h2.81l0.432,0.358v1.515
				h-0.688c0-0.078-0.021-0.229-0.047-0.457c-0.027-0.226-0.058-0.363-0.084-0.42c0-0.052-0.039-0.104-0.109-0.158
				c-0.074-0.053-0.123-0.08-0.15-0.08H33.3L33,34.768v1.719l0.301-0.121h2.119l0.562,0.518v2.354l-0.562,0.479h-2.681l-0.521-0.479
				V34.25L32.218,34.25z M33.296,38.955h1.729l0.265-0.236v-1.355l-0.265-0.237h-1.729l-0.301,0.237v1.355L33.296,38.955z M35.716,0
				v32.062h-1.209V0H35.716z M36.626,0v32.062h-0.256V0H36.626z M37.45,0v32.062h-0.262V0H37.45z"/>
		</g>
	</g>
</g>
<g>
</g>
<g>
</g>
<g>
</g>
<g>
</g>
<g>
</g>
<g>
</g>
<g>
</g>
<g>
</g>
<g>
</g>
<g>
</g>
<g>
</g>
<g>
</g>
<g>
</g>
<g>
</g>
<g>
</g>
</svg>
